<svg width="234" height="157" viewBox="0 0 234 157" fill="none" xmlns="http://www.w3.org/2000/svg">
<g clip-path="url(#clip0_63_46)">
<path d="M219.098 69.6024C217.187 69.6568 215.331 69.7112 213.421 69.7112C213.203 73.4662 212.984 77.1667 212.766 80.8672C216.205 81.2481 219.698 81.6291 223.191 82.01C226.63 85.2752 230.069 88.6492 233.508 92.132C233.508 95.3972 233.508 98.6079 233.508 101.873C233.508 105.084 233.508 108.349 233.508 111.56C230.506 113.791 227.558 115.913 224.556 117.981C218.988 116.403 213.421 114.988 207.908 113.628C204.688 110.145 201.522 106.825 198.301 103.669C198.301 100.676 198.301 97.7372 198.301 94.7986C203.323 95.3972 208.345 96.0502 213.421 96.7577C213.421 99.2065 213.421 101.655 213.421 104.104C215.331 104.431 217.187 104.812 219.098 105.138C219.098 101.329 219.098 97.4651 219.098 93.6013C215.604 92.7851 212.056 92.0232 208.563 91.2613C205.124 88.3771 201.74 85.6017 198.301 82.9896C198.301 80.5407 198.301 78.0918 198.301 75.6429C198.301 73.1941 198.301 70.7452 198.301 68.2963C201.249 65.7386 204.251 63.1265 207.253 60.4055C212.821 59.9701 218.388 59.4804 223.901 58.9906C226.848 61.3851 229.851 63.8883 232.853 66.4461C232.853 70.201 232.853 73.9015 232.853 77.6565C228.268 77.5476 223.683 77.4388 219.098 77.3299C219.098 74.7178 219.098 72.1601 219.098 69.6024ZM172.156 70.4731C169.427 70.4731 166.643 70.5275 163.914 70.5819C163.914 68.0242 163.914 65.5209 163.914 62.9632C174.285 62.5279 184.656 61.9292 195.026 61.2762C195.026 64.2149 195.026 67.1535 195.026 70.0922C192.297 70.1466 189.568 70.201 186.839 70.2554C186.839 76.7313 186.839 83.2072 186.839 89.6831C186.839 96.1591 186.839 102.635 186.839 109.111C181.926 108.295 177.068 107.478 172.156 106.716C172.156 100.676 172.156 94.6353 172.156 88.5948C172.156 82.6086 172.156 76.5136 172.156 70.4731ZM143.663 87.3431C141.535 87.2887 139.461 87.2343 137.332 87.1799C137.332 89.9008 137.332 92.6218 137.332 95.3428C137.332 98.0637 137.332 100.785 137.332 103.506C132.528 103.234 127.725 103.125 122.922 103.07C122.922 96.4856 122.922 89.8464 122.922 83.2617C122.922 76.6769 122.922 70.0377 122.922 63.453C131.218 63.3986 139.57 63.2353 147.866 63.0721C151.305 64.9223 154.689 66.827 158.128 68.7861C158.128 70.6908 158.128 72.541 158.128 74.4457C158.128 76.3504 158.128 78.2006 158.128 80.1053C155.617 81.2481 153.106 82.3909 150.541 83.4793C153.052 84.9487 155.563 86.418 158.128 87.9417C158.128 90.826 158.128 93.6558 158.128 96.54C158.128 99.4242 158.128 102.254 158.128 105.138C153.325 104.703 148.521 104.268 143.718 103.887C143.718 101.166 143.718 98.3903 143.718 95.6693C143.718 92.9483 143.663 90.0641 143.663 87.3431ZM143.663 70.7996C141.535 70.7996 139.461 70.7996 137.332 70.854C137.332 73.8471 137.332 76.7857 137.332 79.7788C139.406 79.7788 141.535 79.8332 143.663 79.8332C143.663 76.7857 143.663 73.7927 143.663 70.7996ZM89.6805 63.1809C95.248 63.2897 100.815 63.3986 106.328 63.453C109.494 65.5209 112.66 67.5344 115.88 69.548C115.88 74.1192 115.88 78.6904 115.88 83.2617C115.88 87.8329 115.88 92.4041 115.88 96.9209C112.66 98.9889 109.494 101.111 106.328 103.179C100.543 103.342 94.7567 103.669 88.9709 104.05C85.9688 102.145 83.0213 100.295 80.0192 98.3903C80.0192 93.5469 80.0192 88.7036 80.0192 83.8603C80.0192 79.0169 80.0192 74.1736 80.0192 69.3303C83.2942 67.2079 86.5146 65.1944 89.6805 63.1809ZM95.1934 71.2894C95.1934 75.4253 95.1934 79.5611 95.1934 83.7514C95.1934 87.8873 95.1934 92.0232 95.1934 96.2135C97.1038 96.1046 98.9596 96.0502 100.87 95.9414C100.87 91.8599 100.87 87.724 100.87 83.6426C100.87 79.5611 100.87 75.4253 100.87 71.3438C98.9596 71.3438 97.1038 71.3438 95.1934 71.2894ZM57.9675 91.4246C57.9675 94.0911 57.9675 96.7577 57.9675 99.4242C57.9675 102.091 57.9675 104.757 57.9675 107.424C52.8913 108.24 47.8696 109.111 42.8479 109.927C42.8479 101.764 42.8479 93.6558 42.8479 85.4929C42.8479 77.3299 42.8479 69.2214 42.8479 61.0585C51.1446 61.5483 59.4413 61.9837 67.738 62.3646C71.1767 64.5958 74.5609 66.7182 77.9996 68.7861C77.9996 71.3438 77.9996 73.9015 77.9996 76.4592C77.9996 79.0169 77.9996 81.5747 77.9996 84.1324C74.7792 86.2547 71.6134 88.4315 68.393 90.6627C64.8996 90.9348 61.4063 91.2069 57.9675 91.4246ZM63.5896 70.0922C61.6792 70.0922 59.8234 70.0377 57.9675 70.0377C57.9675 72.2145 57.9675 74.3913 57.9675 76.5681C57.9675 78.7448 57.9675 80.9216 57.9675 83.044C59.8234 82.9896 61.6792 82.8807 63.5896 82.8263C63.5896 80.7039 63.5896 78.5816 63.5896 76.4592C63.5896 74.3369 63.5896 72.2145 63.5896 70.0922ZM20.7417 69.7656C18.8313 69.7112 16.9754 69.6568 15.065 69.6568C14.8467 73.4662 14.6283 77.2755 14.41 81.1393C17.9034 81.1937 21.3967 81.2481 24.89 81.3026C28.3288 83.8058 31.7675 86.2547 35.2063 88.5948C35.2063 91.2069 35.2063 93.819 35.2063 96.4312C35.2063 99.0433 35.2063 101.655 35.2063 104.268C32.2042 107.206 29.2567 110.254 26.2546 113.356C20.6871 114.662 15.1196 115.968 9.60668 117.437C6.38626 115.26 3.22043 112.92 7.62939e-06 110.471C7.62939e-06 106.825 7.62939e-06 103.234 7.62939e-06 99.5875C5.02168 98.8256 10.0433 98.0637 15.065 97.3563C15.065 99.8596 15.065 102.363 15.065 104.921C16.9754 104.594 18.8313 104.268 20.7417 103.941C20.7417 100.241 20.7417 96.5944 20.7417 92.8939C17.2484 92.8939 13.7004 92.8939 10.2071 92.8939C6.76835 90.445 3.38418 87.8873 7.62939e-06 85.2208C7.62939e-06 82.2277 7.62939e-06 79.2346 7.62939e-06 76.2416C7.62939e-06 73.2485 7.62939e-06 70.2554 7.62939e-06 67.2623C2.94751 64.487 5.94959 61.766 8.95168 59.1539C14.4646 59.6436 20.0321 60.079 25.5996 60.5143C28.5471 63.0721 31.5492 65.5209 34.5513 67.861C34.5513 70.9084 34.5513 73.9559 34.5513 76.949C29.9663 77.0034 25.3813 77.1123 20.7963 77.2211C20.7417 74.7178 20.7417 72.2689 20.7417 69.7656Z" fill="#023F7A"/>
<path d="M150.159 117.437C150.432 116.131 150.65 114.771 150.923 113.41C151.196 112.05 151.414 110.689 151.687 109.274C153.761 109.492 155.836 109.764 157.964 110.036C157.091 112.431 156.272 114.716 155.399 116.947C154.58 119.124 153.707 121.246 152.833 123.369C152.833 125.11 152.833 126.852 152.833 128.593C152.833 130.335 152.833 132.076 152.833 133.817C150.705 132.892 148.631 132.022 146.502 131.205C146.502 129.627 146.502 127.994 146.502 126.416C146.502 124.838 146.502 123.206 146.502 121.627C145.628 119.287 144.81 117.002 143.936 114.771C143.118 112.594 142.244 110.417 141.371 108.349C143.445 108.512 145.574 108.676 147.648 108.893C148.03 110.254 148.412 111.669 148.74 113.084C149.122 114.498 149.504 115.968 149.886 117.383C149.995 117.383 150.104 117.383 150.159 117.437ZM133.511 119.505C132.638 119.396 131.764 119.287 130.891 119.179C130.891 120.485 130.891 121.791 130.891 123.097C130.891 124.403 130.891 125.709 130.891 127.015C128.871 126.688 126.906 126.471 124.887 126.199C124.887 123.097 124.887 119.995 124.887 116.893C124.887 113.791 124.887 110.689 124.887 107.587C128.326 107.642 131.764 107.805 135.258 107.968C136.677 109.002 138.096 110.09 139.515 111.179C139.515 112.104 139.515 113.029 139.515 113.954C139.515 114.879 139.515 115.805 139.515 116.73C138.478 117.165 137.441 117.6 136.404 117.981C137.441 118.798 138.478 119.668 139.515 120.539C139.515 121.954 139.515 123.369 139.515 124.729C139.515 126.144 139.515 127.559 139.515 128.92C137.496 128.375 135.531 127.886 133.511 127.45C133.511 126.144 133.511 124.784 133.511 123.478C133.511 122.117 133.511 120.811 133.511 119.505ZM133.511 111.505C132.638 111.451 131.764 111.397 130.891 111.342C130.891 112.757 130.891 114.172 130.891 115.641C131.764 115.696 132.638 115.805 133.511 115.913C133.511 114.39 133.511 112.975 133.511 111.505ZM117.19 122.335C116.044 122.335 114.898 122.389 113.752 122.444C113.533 123.641 113.315 124.893 113.151 126.09C111.186 126.253 109.167 126.471 107.202 126.797C107.857 123.532 108.512 120.321 109.167 117.111C109.822 113.954 110.477 110.798 111.132 107.642C114.025 107.587 116.863 107.533 119.756 107.533C120.411 110.58 121.066 113.682 121.721 116.784C122.376 119.886 123.031 122.988 123.74 126.09C121.721 125.981 119.756 125.927 117.736 125.927C117.573 124.729 117.409 123.532 117.19 122.335ZM115.116 111.233C114.953 112.539 114.734 113.791 114.57 115.097C114.407 116.349 114.188 117.655 114.025 118.961C114.953 118.906 115.88 118.906 116.808 118.906C116.59 117.655 116.426 116.349 116.263 115.097C116.099 113.845 115.88 112.539 115.717 111.288C115.498 111.233 115.335 111.233 115.116 111.233ZM99.9967 108.186C102.071 108.077 104.145 107.968 106.219 107.859C106.219 111.07 106.219 114.226 106.219 117.437C106.219 120.648 106.219 123.804 106.219 127.015C104.145 127.396 102.071 127.886 99.9967 128.321C99.9967 124.947 99.9967 121.627 99.9967 118.253C99.9967 114.879 99.9967 111.505 99.9967 108.186ZM81.6021 109.927C85.1501 109.492 88.698 109.111 92.2459 108.784C93.6651 109.71 95.0842 110.526 96.5034 111.397C96.5034 113.845 96.5034 116.294 96.5034 118.743C96.5034 121.192 96.5034 123.641 96.5034 126.09C95.1934 127.505 93.8288 129.083 92.5188 130.661C88.8617 132.13 85.2592 133.763 81.6021 135.668C81.6021 131.368 81.6021 127.069 81.6021 122.77C81.6021 118.525 81.6021 114.226 81.6021 109.927ZM90.2263 112.975C89.353 113.138 88.4796 113.247 87.6063 113.41C87.6063 115.859 87.6063 118.308 87.6063 120.811C87.6063 123.26 87.6063 125.709 87.6063 128.212C88.4796 127.886 89.353 127.559 90.2263 127.233C90.2263 124.893 90.2263 122.498 90.2263 120.158C90.2263 117.709 90.2263 115.315 90.2263 112.975Z" fill="#037971"/>
<path fill-rule="evenodd" clip-rule="evenodd" d="M100.106 0C102.453 0 104.309 1.90468 104.309 4.19029C104.309 6.53033 102.398 8.38059 100.106 8.38059C97.7588 8.38059 95.903 6.47591 95.903 4.19029C95.8484 1.90468 97.7588 0 100.106 0Z" fill="#037971"/>
<path fill-rule="evenodd" clip-rule="evenodd" d="M120.629 14.149L114.516 10.0131C114.516 10.0131 96.0121 7.18332 99.8875 24.5431C99.9421 24.5431 96.0667 8.65264 120.629 14.149Z" fill="#037971"/>
<path fill-rule="evenodd" clip-rule="evenodd" d="M98.4139 18.7747C98.4139 18.7747 94.5384 26.339 111.35 42.9369L108.676 44.0797C108.676 44.1342 92.7918 30.3116 98.4139 18.7747Z" fill="#037971"/>
<path fill-rule="evenodd" clip-rule="evenodd" d="M97.1037 28.2981C97.1037 28.2981 95.3571 34.8828 105.837 45.3314L102.453 46.2021C102.453 46.2565 93.6104 36.1345 97.1037 28.2981Z" fill="#037971"/>
<path fill-rule="evenodd" clip-rule="evenodd" d="M111.296 55.0179C111.296 55.0179 120.247 64.106 117.627 71.9424C117.627 71.9424 124.232 61.9836 117.9 51.916L115.99 52.7867C115.99 52.7867 121.393 59.698 118.773 68.4051C118.773 68.4051 119.592 61.2217 113.315 53.8751L111.296 55.0179Z" fill="#037971"/>
<path fill-rule="evenodd" clip-rule="evenodd" d="M103.49 30.2572C115.608 26.0125 126.415 26.2846 128.489 31.1824C130.727 36.5155 121.721 45.2226 108.403 50.6645C96.9401 55.3446 86.078 56.1065 81.8205 52.8413L82.0389 53.4943C86.4055 57.6302 99.0689 56.9228 112.387 51.4808C127.343 45.3314 137.441 35.5359 134.93 29.6042C132.419 23.6181 118.337 23.7813 103.381 29.8763L103.49 30.2572Z" fill="#F6AE2D"/>
<path fill-rule="evenodd" clip-rule="evenodd" d="M85.6958 47.9978C84.4404 44.8415 88.0975 39.8349 94.5929 34.9371L93.9925 34.5562C84.9862 39.7261 79.4187 45.821 80.8925 49.5216C82.7483 54.2016 95.0295 53.4398 108.293 47.7801C115.171 44.8415 120.957 41.1954 124.668 37.7125C121.393 40.2703 117.3 42.828 112.66 45.0592C99.6145 51.3174 87.5516 52.6779 85.6958 47.9978Z" fill="#F6AE2D"/>
<path d="M75.7617 119.179L74.4517 120.92C32.8592 127.45 10.3709 139.749 10.3163 139.749C31.0034 127.722 66.1005 120.702 75.7617 119.179Z" fill="#F6AE2D"/>
<path d="M162.222 119.179L163.532 120.92C205.124 127.45 227.613 139.749 227.667 139.749C206.98 127.722 171.883 120.702 162.222 119.179Z" fill="#F6AE2D"/>
<path d="M159.329 150.905C159.274 150.524 159.329 150.198 159.493 149.925C159.656 149.653 159.875 149.436 160.148 149.327C160.421 149.218 160.639 149.109 160.912 149.109C161.294 149.109 161.676 149.218 162.003 149.49C162.331 149.762 162.495 150.143 162.549 150.633H161.785C161.785 150.361 161.676 150.143 161.512 150.034C161.348 149.925 161.13 149.871 160.912 149.871C160.693 149.871 160.53 149.925 160.366 150.089C160.202 150.198 160.093 150.415 160.093 150.687C160.093 150.742 160.093 150.796 160.148 150.851C160.148 150.905 160.148 150.959 160.148 150.959C160.202 151.177 160.53 151.395 161.076 151.612C161.621 151.83 162.058 152.048 162.331 152.265C162.604 152.483 162.713 152.919 162.658 153.572C162.604 154.061 162.386 154.442 162.058 154.66C161.73 154.932 161.348 155.041 160.912 155.041C160.421 155.041 159.984 154.878 159.656 154.551C159.329 154.225 159.165 153.789 159.165 153.299H159.929C159.929 153.626 160.038 153.844 160.257 154.061C160.475 154.279 160.693 154.388 160.966 154.388C161.239 154.388 161.458 154.279 161.621 154.061C161.84 153.898 161.894 153.68 161.894 153.408C161.894 153.191 161.84 152.973 161.676 152.755C161.512 152.592 161.294 152.429 160.966 152.374C159.929 152.048 159.383 151.558 159.329 150.905ZM156.709 154.878V149.98H155.563V149.272H156.763V147.313H157.528V149.272H158.838V149.98H157.528V154.878H156.709ZM152.997 154.878V149.272H153.707V150.089C154.034 149.436 154.58 149.109 155.344 149.109V149.871C155.126 149.871 154.853 149.925 154.635 150.034C154.362 150.143 154.198 150.361 154.034 150.578C153.871 150.796 153.761 151.068 153.761 151.34V154.823H152.997V154.878ZM146.829 151.993C146.829 152.646 147.048 153.191 147.484 153.626C147.921 154.007 148.412 154.225 149.067 154.279C149.395 154.279 149.722 154.17 150.05 154.007C150.377 153.844 150.65 153.572 150.868 153.245C151.087 152.919 151.196 152.483 151.196 152.048C151.196 151.667 151.087 151.34 150.923 151.014C150.759 150.687 150.432 150.415 150.104 150.198C149.777 149.98 149.395 149.925 149.067 149.925C148.467 149.925 147.975 150.143 147.539 150.578C147.048 150.905 146.829 151.395 146.829 151.993ZM146.065 151.993C146.065 151.504 146.229 151.014 146.447 150.578C146.72 150.143 147.048 149.817 147.539 149.545C148.03 149.272 148.521 149.164 149.067 149.164C149.395 149.164 149.668 149.218 150.05 149.381C150.377 149.545 150.705 149.708 150.923 149.925C151.141 150.143 151.414 150.47 151.578 150.796C151.742 151.123 151.851 151.504 151.905 151.83C151.96 152.374 151.851 152.919 151.578 153.408C151.305 153.898 150.978 154.279 150.486 154.551C149.995 154.823 149.504 154.986 148.958 154.986C148.467 154.986 148.03 154.878 147.539 154.606C147.102 154.388 146.72 154.007 146.447 153.572C146.174 153.082 146.065 152.592 146.065 151.993ZM140.006 152.102C140.006 152.646 140.225 153.136 140.607 153.572C140.989 154.007 141.535 154.225 142.299 154.279C142.681 154.279 143.008 154.17 143.391 154.007C143.718 153.844 143.991 153.572 144.209 153.191C144.428 152.864 144.537 152.483 144.537 152.048C144.537 151.721 144.482 151.449 144.373 151.177C144.264 150.905 144.1 150.687 143.882 150.47C143.663 150.252 143.445 150.089 143.172 149.98C142.899 149.871 142.572 149.817 142.299 149.817C141.644 149.817 141.098 150.089 140.716 150.524C140.225 151.014 140.006 151.504 140.006 152.102ZM139.297 156.837V149.272H140.006V150.252C140.498 149.545 141.207 149.164 142.135 149.109C142.626 149.109 143.118 149.218 143.609 149.436C144.1 149.653 144.482 149.98 144.755 150.415C145.028 150.851 145.192 151.34 145.192 151.885C145.192 152.483 145.083 152.973 144.81 153.463C144.537 153.952 144.155 154.279 143.718 154.551C143.281 154.823 142.735 154.932 142.244 154.932C141.808 154.932 141.371 154.878 140.934 154.66C140.552 154.442 140.225 154.17 140.061 153.735V156.782H139.297V156.837ZM134.548 152.755C134.603 153.245 134.766 153.626 135.039 153.898C135.367 154.17 135.694 154.279 136.131 154.279C136.513 154.279 136.84 154.116 137.168 153.844C137.495 153.572 137.605 153.191 137.605 152.81C137.605 152.483 137.55 152.211 137.386 151.993C137.223 151.721 136.786 151.449 136.022 151.232C135.312 151.014 134.766 150.796 134.439 150.524C134.111 150.252 133.948 149.762 134.002 149.055C134.057 148.511 134.275 148.075 134.657 147.749C135.094 147.422 135.53 147.259 136.131 147.259C136.731 147.259 137.223 147.477 137.659 147.858C138.096 148.238 138.26 148.728 138.26 149.164V149.272H137.495C137.441 148.837 137.277 148.511 137.059 148.347C136.84 148.13 136.513 148.021 136.185 147.966C135.858 147.912 135.585 148.021 135.258 148.238C134.985 148.456 134.821 148.783 134.821 149.109C134.766 149.599 134.875 149.925 135.148 150.089C135.367 150.252 135.803 150.415 136.349 150.578C136.895 150.742 137.332 150.905 137.714 151.123C138.096 151.34 138.314 151.776 138.478 152.32C138.533 152.538 138.533 152.646 138.533 152.81C138.533 153.354 138.314 153.898 137.932 154.333C137.55 154.769 136.95 155.041 136.295 155.041C135.858 155.041 135.421 154.932 135.039 154.769C134.657 154.551 134.384 154.279 134.166 153.952C133.948 153.626 133.893 153.245 133.893 152.81H134.548V152.755ZM128.216 154.878V149.272H128.926V150.089C129.253 149.436 129.799 149.109 130.563 149.109V149.871C130.345 149.871 130.072 149.925 129.854 150.034C129.581 150.143 129.417 150.361 129.253 150.578C129.09 150.796 128.98 151.068 128.98 151.34V154.823H128.216V154.878ZM122.048 151.993C122.048 152.646 122.267 153.191 122.703 153.626C123.14 154.007 123.631 154.225 124.286 154.279C124.614 154.279 124.941 154.17 125.269 154.007C125.596 153.844 125.869 153.572 126.088 153.245C126.306 152.919 126.415 152.483 126.415 152.048C126.415 151.667 126.306 151.34 126.142 151.014C125.978 150.687 125.651 150.415 125.323 150.198C124.996 149.98 124.614 149.925 124.286 149.925C123.686 149.925 123.195 150.143 122.758 150.578C122.267 150.905 122.048 151.395 122.048 151.993ZM121.339 151.993C121.339 151.504 121.503 151.014 121.721 150.578C121.994 150.143 122.321 149.817 122.813 149.545C123.304 149.272 123.795 149.164 124.341 149.164C124.668 149.164 124.941 149.218 125.323 149.381C125.651 149.545 125.978 149.708 126.197 149.925C126.47 150.143 126.688 150.47 126.852 150.796C127.015 151.123 127.125 151.504 127.179 151.83C127.234 152.374 127.125 152.919 126.852 153.408C126.579 153.898 126.251 154.279 125.76 154.551C125.269 154.823 124.778 154.986 124.232 154.986C123.74 154.986 123.304 154.878 122.813 154.606C122.376 154.388 121.994 154.007 121.721 153.572C121.448 153.082 121.339 152.592 121.339 151.993ZM116.699 154.878V147.313H120.52V148.021H117.409V150.742H120.356V151.395H117.409V154.878H116.699ZM107.365 151.885C107.311 152.538 107.529 153.082 107.966 153.572C108.403 154.007 108.894 154.225 109.549 154.279C109.767 154.279 110.04 154.225 110.258 154.17C110.531 154.061 110.75 153.952 110.968 153.735C111.186 153.517 111.405 153.299 111.514 153.027C111.678 152.755 111.732 152.374 111.732 151.993C111.732 151.612 111.623 151.286 111.405 150.959C111.186 150.633 110.913 150.361 110.586 150.198C110.258 149.98 109.876 149.925 109.44 149.925C108.675 149.925 108.13 150.198 107.802 150.687C107.529 151.123 107.365 151.558 107.365 151.885ZM106.601 152.048C106.601 151.449 106.71 150.959 106.983 150.524C107.256 150.089 107.584 149.762 108.02 149.49C108.457 149.272 108.894 149.109 109.33 149.109C109.822 149.109 110.313 149.218 110.75 149.436C111.186 149.653 111.459 149.98 111.678 150.361V149.218H112.387V154.333C112.387 155.15 112.114 155.803 111.568 156.293C111.023 156.728 110.368 157 109.603 157C108.948 157 108.348 156.837 107.802 156.456C107.256 156.129 106.929 155.585 106.71 154.986H107.475C107.638 155.422 107.966 155.748 108.348 155.966C108.73 156.184 109.167 156.293 109.603 156.293C109.985 156.293 110.313 156.238 110.64 156.075C110.968 155.912 111.186 155.694 111.405 155.422C111.623 155.15 111.678 154.769 111.678 154.388V153.789C111.241 154.606 110.531 155.041 109.494 155.041C109.003 155.041 108.566 154.932 108.13 154.714C107.693 154.497 107.311 154.17 107.038 153.68C106.765 153.191 106.601 152.701 106.601 152.048ZM100.543 154.878V149.272H101.252V150.089C101.47 149.762 101.689 149.545 102.016 149.381C102.344 149.218 102.671 149.164 103.053 149.164C103.708 149.164 104.309 149.381 104.8 149.871C105.291 150.306 105.564 150.959 105.564 151.721V154.878H104.8V151.721C104.8 151.123 104.636 150.687 104.309 150.361C103.981 150.034 103.545 149.871 103.053 149.871C102.617 149.871 102.18 150.034 101.853 150.306C101.525 150.633 101.361 151.014 101.361 151.558V154.823H100.543V154.878ZM98.523 148.619V147.313H99.2871V148.619H98.523ZM98.523 154.878V149.272H99.2871V154.878H98.523ZM92.2459 154.878V147.313H93.0101V150.089C93.3921 149.49 93.9926 149.164 94.7567 149.164C95.1934 149.164 95.5755 149.272 95.9576 149.49C96.3396 149.708 96.6671 149.98 96.8855 150.361C97.1038 150.742 97.213 151.177 97.213 151.667V154.878H96.4488V151.667C96.4488 151.286 96.3396 150.959 96.1759 150.742C96.0121 150.47 95.7938 150.306 95.5209 150.143C95.248 150.034 94.9751 149.925 94.6476 149.925C94.1563 149.925 93.7742 150.089 93.4467 150.361C93.1192 150.633 92.9555 151.068 92.9555 151.558V154.878H92.2459ZM89.4076 154.878V149.98H88.2067V149.272H89.4076V147.313H90.1717V149.272H91.4817V149.98H90.1717V154.878H89.4076ZM84.8771 154.66L82.7484 149.272H83.5671L85.3684 153.735L87.2788 149.272H88.0976L84.8771 156.837H84.0584L84.8771 154.66ZM77.0171 154.878V149.272H77.7267V150.089C77.945 149.762 78.1634 149.545 78.4909 149.381C78.8184 149.218 79.1459 149.164 79.528 149.164C80.183 149.164 80.7834 149.381 81.2746 149.871C81.7659 150.306 82.0388 150.959 82.0388 151.721V154.878H81.2746V151.721C81.2746 151.123 81.1109 150.687 80.7834 150.361C80.4559 150.034 80.0192 149.871 79.528 149.871C79.0913 149.871 78.6546 150.034 78.3271 150.306C77.9996 150.633 77.8359 151.014 77.8359 151.558V154.823H77.0171V154.878ZM72.5959 148.184L71.1221 151.667H74.0696L72.5959 148.184ZM72.1592 147.313H72.978L76.253 154.878H75.4342L74.3425 152.32H70.8492L69.7575 154.878H68.9388L72.1592 147.313Z" fill="#023F7A"/>
</g>
<defs>
<clipPath id="clip0_63_46">
<rect width="233.508" height="157" fill="white"/>
</clipPath>
</defs>
</svg>
