<svg width="60" height="60" viewBox="0 0 60 60" fill="none" xmlns="http://www.w3.org/2000/svg">
<path d="M12.1767 5.86419C17.6234 1.83114 24.128 -0.122126 30.5983 0.00590711C37.054 0.13394 43.477 2.33413 48.7805 6.60267C49.3155 6.27497 49.9237 6.11035 50.5311 6.11035C51.3869 6.11035 52.2458 6.43806 52.902 7.09423L52.9081 7.10032C53.5627 7.75649 53.8896 8.61386 53.8896 9.46894C53.8896 10.0763 53.725 10.6845 53.3973 11.2195C57.6659 16.523 59.8661 22.946 59.9941 29.4017C60.1221 35.872 58.1696 42.3773 54.135 47.8248C54.7386 48.6243 55.0397 49.5777 55.0397 50.5311C55.0397 51.6849 54.5984 52.8395 53.7189 53.7189C52.8395 54.5984 51.6849 55.0397 50.5311 55.0397C49.5769 55.0397 48.622 54.7379 47.8233 54.1358C42.3766 58.1688 35.872 60.1221 29.4017 59.9941C22.946 59.8661 16.523 57.6659 11.2195 53.3973C10.6845 53.725 10.0763 53.8896 9.46894 53.8896C8.6131 53.8896 7.75421 53.5619 7.09804 52.9058L7.09194 52.8997C6.4373 52.2435 6.11035 51.3861 6.11035 50.5311C6.11035 49.9237 6.27497 49.3155 6.60267 48.7805C2.33413 43.477 0.133942 37.054 0.00590918 30.5982C-0.122124 24.128 1.83038 17.6227 5.86496 12.1752C5.26137 11.3757 4.96034 10.4223 4.96034 9.46894C4.96034 8.31512 5.4016 7.16053 6.28107 6.28106C7.16053 5.4016 8.31512 4.96034 9.46894 4.96034C10.4231 4.96034 11.378 5.26213 12.1767 5.86419ZM32.7291 25.2064C32.9676 25.6751 33.149 26.1704 33.2717 26.6795C33.6467 28.238 33.4622 29.9345 32.6422 31.4396C31.8207 32.947 30.4946 34.0224 28.9803 34.5528C28.4887 34.725 27.9766 34.8401 27.4546 34.8935C28.2159 35.2898 29.0824 35.5146 30 35.5146C31.5227 35.5146 32.9028 34.8965 33.8997 33.8997C34.8965 32.9028 35.5146 31.5227 35.5146 30C35.5146 28.4773 34.8965 27.0971 33.8997 26.1003C33.5522 25.7528 33.1589 25.4518 32.7291 25.2064ZM25.2102 32.7352C26.2527 33.0972 27.3563 33.0766 28.3447 32.7298C29.4223 32.3526 30.3658 31.5875 30.9488 30.5175C31.5333 29.4452 31.6644 28.2365 31.3969 27.1261C31.1531 26.1102 30.5716 25.1728 29.699 24.493C28.2959 24.5685 27.0308 25.1698 26.1003 26.1003C25.1035 27.0971 24.4854 28.4773 24.4854 30C24.4854 30.9953 24.7491 31.9289 25.2102 32.7352ZM15.8798 29.1617L19.9189 26.8296C20.38 26.5629 20.9714 26.7199 21.2381 27.181C21.3265 27.3334 21.3684 27.5003 21.3677 27.6649L21.3707 32.3343C21.3707 32.8685 20.9371 33.3022 20.4028 33.3022C20.194 33.3022 20.0004 33.2359 19.8419 33.1231L15.8752 30.8353C15.4141 30.5685 15.2571 29.9771 15.5239 29.5161C15.6123 29.3629 15.7365 29.244 15.8798 29.1617ZM18.8649 29.6677L18.2895 30L19.435 30.6638V29.3385L18.8649 29.6677ZM41.7105 30L40.565 29.3385V30.6638L41.7105 30ZM42.103 27.9972L44.1202 29.1617C44.2635 29.244 44.3877 29.3629 44.4761 29.5161C44.7429 29.9771 44.5859 30.5685 44.1248 30.8353L40.1581 33.1231C39.9995 33.2359 39.806 33.3022 39.5972 33.3022C39.0629 33.3022 38.6293 32.8685 38.6293 32.3343V27.6649C38.6316 27.5003 38.6735 27.3334 38.7619 27.181C39.0286 26.7199 39.62 26.5629 40.0811 26.8296L42.103 27.9972ZM19.4212 39.396L20.6299 34.8858C20.7671 34.3707 21.2975 34.0643 21.8127 34.2015C21.9834 34.2472 22.1305 34.3348 22.2471 34.4514L25.5493 37.7521C25.9266 38.1293 25.9266 38.7436 25.5493 39.1208C25.4129 39.2573 25.2452 39.3449 25.0684 39.3822L20.604 40.5787C20.0888 40.7159 19.5584 40.4096 19.4212 39.8944C19.3763 39.7252 19.3793 39.5545 19.4212 39.396ZM21.8927 37.6393L21.7213 38.2787L22.9963 37.9365L22.0635 37.0037L21.8927 37.6393ZM38.2795 21.7205L37.0045 22.0627L37.9373 22.9955L38.2795 21.7205ZM37.1417 20.0248L39.3967 19.4205C39.5552 19.3786 39.726 19.3755 39.8951 19.4205C40.4103 19.5577 40.7167 20.0881 40.5795 20.6033L39.383 25.0677C39.3457 25.2445 39.258 25.4121 39.1216 25.5486C38.7444 25.9258 38.1301 25.9258 37.7529 25.5486L34.4514 22.2471C34.3356 22.1298 34.248 21.9827 34.2022 21.812C34.0651 21.2968 34.3714 20.7664 34.8866 20.6292L37.1417 20.0248ZM38.2787 38.2787L37.9365 37.0037L37.0037 37.9365L38.2787 38.2787ZM39.9744 37.1409L40.5788 39.396C40.6207 39.5545 40.6237 39.7252 40.5788 39.8944C40.4416 40.4096 39.9111 40.7159 39.396 40.5787L34.9316 39.3822C34.7548 39.3449 34.5871 39.2573 34.4507 39.1208C34.0734 38.7436 34.0734 38.1293 34.4507 37.7521L37.7521 34.4507C37.8695 34.3348 38.0166 34.2472 38.1873 34.2015C38.7025 34.0643 39.2329 34.3707 39.3701 34.8858L39.9744 37.1409ZM20.6033 19.4205L25.1134 20.6292C25.6286 20.7664 25.9349 21.2968 25.7978 21.812C25.752 21.9827 25.6644 22.1298 25.5478 22.2464L22.2471 25.5486C21.8699 25.9258 21.2556 25.9258 20.8784 25.5486C20.742 25.4121 20.6543 25.2445 20.617 25.0677L19.4205 20.6033C19.2833 20.0881 19.5897 19.5577 20.1049 19.4205C20.274 19.3755 20.4447 19.3786 20.6033 19.4205ZM22.3599 21.892L21.7205 21.7205L22.0627 22.9955L22.9955 22.0627L22.3599 21.892ZM30 41.7105L30.6638 40.565H29.3385L30 41.7105ZM32.0028 42.103L30.8383 44.1202C30.756 44.2635 30.6371 44.3877 30.4839 44.4761C30.0229 44.7429 29.4315 44.5859 29.1647 44.1248L26.8632 40.1398C26.7588 39.9851 26.697 39.7984 26.697 39.5972C26.697 39.0629 27.1307 38.6293 27.6649 38.6293H32.3343C32.4974 38.6339 32.6628 38.675 32.8144 38.7619C33.2755 39.0263 33.434 39.6162 33.1696 40.0773L32.0028 42.103ZM30.8383 15.8798L33.1696 19.9227C33.434 20.3838 33.2755 20.9736 32.8144 21.2381C32.6628 21.325 32.4974 21.3661 32.3343 21.3661L27.6649 21.3707C27.1307 21.3707 26.697 20.9371 26.697 20.4028C26.697 20.2016 26.7588 20.0149 26.8632 19.8602L29.1647 15.8752C29.4315 15.4141 30.0229 15.2571 30.4839 15.5238C30.6371 15.6123 30.756 15.7365 30.8383 15.8798ZM30.3323 18.8649L30 18.2895L29.3385 19.435H30.6638L30.3323 18.8649ZM30 22.5497C32.0569 22.5497 33.921 23.3842 35.2684 24.7316C36.6158 26.079 37.4503 27.9431 37.4503 30C37.4503 32.0569 36.6158 33.921 35.2684 35.2684C33.921 36.6158 32.0569 37.4503 30 37.4503C27.9431 37.4503 26.079 36.6158 24.7316 35.2684C23.3842 33.921 22.5497 32.0569 22.5497 30C22.5497 27.9431 23.3842 26.079 24.7316 24.7316C26.079 23.3842 27.9431 22.5497 30 22.5497ZM9.93992 27.5293C10.2402 27.6649 10.5107 27.8532 10.7401 28.0825C11.2302 28.5726 11.5342 29.2516 11.5342 30C11.5342 30.7484 11.2302 31.4274 10.7401 31.9174C10.5107 32.1468 10.2402 32.3351 9.93992 32.4707C10.4818 36.9237 12.4724 40.9308 15.4248 44.0036C18.3741 47.0726 22.2852 49.2134 26.6727 49.9389C26.8533 49.458 27.1345 49.0259 27.4919 48.6692C28.1313 48.0253 29.0199 47.6274 30 47.6274C30.9801 47.6274 31.8687 48.0253 32.5104 48.667L32.5675 48.7287C32.8968 49.0739 33.1574 49.4847 33.3273 49.9389C37.7148 49.2134 41.6259 47.0726 44.5752 44.0036C47.5276 40.9308 49.5182 36.9237 50.0601 32.4707C49.7598 32.3351 49.4893 32.1468 49.2599 31.9174C48.7698 31.4274 48.4658 30.7484 48.4658 30C48.4658 29.2516 48.7698 28.5726 49.2599 28.0825C49.4893 27.8532 49.7598 27.6649 50.0601 27.5293C49.5182 23.0763 47.5276 19.0692 44.5752 15.9964C41.6259 12.9274 37.7148 10.7866 33.3273 10.0611C33.1467 10.542 32.8655 10.9741 32.5081 11.3308C31.8687 11.9747 30.9801 12.3726 30 12.3726C29.0199 12.3726 28.1313 11.9747 27.4896 11.333L27.4325 11.2713C27.1032 10.9261 26.8426 10.5153 26.6727 10.0611C22.2852 10.7866 18.3741 12.9274 15.4248 15.9964C12.4724 19.0692 10.4818 23.0763 9.93992 27.5293ZM8.00571 32.5858C7.58655 32.4532 7.21159 32.2208 6.90828 31.9174C6.41443 31.4274 6.11035 30.7484 6.11035 30C6.11035 29.2516 6.41443 28.5726 6.90447 28.0825L6.97077 28.0223C7.26265 27.7487 7.61551 27.5376 8.00571 27.4142C8.57957 22.4887 10.7699 18.054 14.0332 14.6581C17.3003 11.2584 21.6451 8.89736 26.518 8.12764C26.6574 7.42803 27.0034 6.80234 27.4889 6.31536C28.1359 5.66986 29.023 5.27204 30 5.27204C30.977 5.27204 31.8641 5.66986 32.5073 6.31155C32.9958 6.80082 33.3426 7.42803 33.482 8.12764C38.3549 8.89736 42.6997 11.2584 45.9668 14.6581C49.2301 18.054 51.4204 22.4887 51.9943 27.4142C52.4134 27.5468 52.7884 27.7792 53.0917 28.0825C53.5856 28.5726 53.8896 29.2516 53.8896 30C53.8896 30.7484 53.5856 31.4274 53.0955 31.9174L53.0292 31.9777C52.7373 32.2513 52.3845 32.4623 51.9943 32.5858C51.4204 37.5113 49.2301 41.946 45.9668 45.3419C42.6997 48.7416 38.3549 51.1026 33.482 51.8724C33.3426 52.572 32.9966 53.1977 32.5111 53.6846C31.8641 54.3301 30.977 54.728 30 54.728C29.023 54.728 28.1359 54.3301 27.4927 53.6884C27.0042 53.1992 26.6574 52.572 26.518 51.8724C21.6451 51.1026 17.3003 48.7416 14.0332 45.3419C10.7699 41.946 8.57957 37.5113 8.00571 32.5858ZM9.37139 29.4513C9.23193 29.3118 9.03683 29.2242 8.82268 29.2242C8.62377 29.2242 8.44163 29.2981 8.30445 29.4185L8.2732 29.4513C8.13374 29.5907 8.0461 29.7858 8.0461 30C8.0461 30.2141 8.13374 30.4092 8.2732 30.5487C8.41114 30.6889 8.607 30.7758 8.82268 30.7758C9.03683 30.7758 9.23193 30.6882 9.37139 30.5487C9.51086 30.4092 9.5985 30.2141 9.5985 30C9.5985 29.7858 9.51086 29.5907 9.37139 29.4513ZM51.7276 29.4505C51.5889 29.3111 51.393 29.2242 51.1773 29.2242C50.9632 29.2242 50.7681 29.3118 50.6286 29.4513C50.4891 29.5907 50.4015 29.7858 50.4015 30C50.4015 30.2141 50.4891 30.4092 50.6286 30.5487C50.7681 30.6882 50.9632 30.7758 51.1773 30.7758C51.3762 30.7758 51.5584 30.7019 51.6955 30.5815L51.7268 30.5487C51.8663 30.4092 51.9539 30.2141 51.9539 30C51.9539 29.7858 51.8663 29.5907 51.7276 29.4505ZM31.1416 50.0357C30.8505 49.7446 30.4458 49.5632 30 49.5632C29.5542 49.5632 29.1495 49.7446 28.8584 50.0357C28.565 50.3245 28.3851 50.7292 28.3851 51.1773C28.3851 51.6247 28.5657 52.0301 28.8561 52.3212C29.1472 52.6116 29.5526 52.7922 30 52.7922C30.4474 52.7922 30.8528 52.6116 31.1439 52.3212C31.4343 52.0301 31.6149 51.6247 31.6149 51.1773C31.6149 50.749 31.451 50.3611 31.1835 50.0753L31.1416 50.0357ZM31.1439 7.67876C30.8528 7.3884 30.4474 7.20778 30 7.20778C29.5526 7.20778 29.1472 7.3884 28.8561 7.67876C28.5657 7.96988 28.3851 8.37532 28.3851 8.82268C28.3851 9.25098 28.549 9.63889 28.8165 9.92468L28.8584 9.96431C29.1495 10.2554 29.5542 10.4368 30 10.4368C30.4458 10.4368 30.8505 10.2554 31.1416 9.96431C31.435 9.67547 31.6149 9.27079 31.6149 8.82268C31.6149 8.37532 31.4343 7.96988 31.1439 7.67876ZM12.5105 51.9569C17.4596 55.91 23.4352 57.9463 29.4399 58.066C35.449 58.1849 41.4895 56.3863 46.5628 52.6695C46.2038 52.0034 46.0225 51.2672 46.0225 50.5311C46.0225 49.381 46.463 48.228 47.3424 47.3455L47.4049 47.286C48.2768 46.4447 49.4054 46.0224 50.5311 46.0224C51.2672 46.0224 52.0034 46.2023 52.6695 46.5628C56.3863 41.4895 58.1849 35.449 58.066 29.4398C57.9463 23.4352 55.91 17.4596 51.957 12.5105C51.5065 12.7216 51.0188 12.8275 50.5311 12.8275C49.6744 12.8275 48.8163 12.4983 48.1602 11.8437C47.5017 11.1837 47.1725 10.3255 47.1725 9.46894C47.1725 8.98119 47.2784 8.49345 47.4895 8.04305C42.5404 4.09002 36.5648 2.05368 30.5601 1.93403C24.551 1.81514 18.5105 3.6137 13.4372 7.33048C13.7962 7.99656 13.9775 8.73275 13.9775 9.46894C13.9775 10.619 13.537 11.772 12.6583 12.6515L12.5951 12.714C11.7232 13.5553 10.5946 13.9775 9.46894 13.9775C8.73275 13.9775 7.99656 13.7977 7.33048 13.4372C3.61371 18.5105 1.81514 24.551 1.93403 30.5601C2.05368 36.5648 4.09002 42.5404 8.04305 47.4895C8.49345 47.2784 8.9812 47.1725 9.46894 47.1725C10.3255 47.1725 11.1837 47.5017 11.8398 48.1563C12.4983 48.8163 12.8275 49.6744 12.8275 50.5311C12.8275 51.0188 12.7216 51.5065 12.5105 51.9569ZM9.46894 49.1082C9.10542 49.1082 8.74037 49.2477 8.46297 49.5251C8.18556 49.8025 8.0461 50.1675 8.0461 50.5311C8.0461 50.8961 8.18404 51.2619 8.45916 51.537C8.73809 51.816 9.1039 51.9539 9.46894 51.9539C9.83247 51.9539 10.1975 51.8144 10.4749 51.537C10.7523 51.2596 10.8918 50.8946 10.8918 50.5311C10.8918 50.166 10.7523 49.8002 10.4764 49.5236C10.1998 49.2477 9.83399 49.1082 9.46894 49.1082ZM50.5311 8.04609C50.1675 8.04609 49.8025 8.18556 49.5251 8.46296C49.2477 8.74037 49.1082 9.10542 49.1082 9.46894C49.1082 9.83399 49.2477 10.1998 49.5236 10.4764C49.8002 10.7523 50.166 10.8918 50.5311 10.8918C50.8946 10.8918 51.2596 10.7523 51.537 10.4749C51.8144 10.1975 51.9539 9.83246 51.9539 9.46894C51.9539 9.10389 51.816 8.73808 51.5408 8.46296C51.2619 8.18403 50.8961 8.04609 50.5311 8.04609ZM48.7134 48.7104C48.2089 49.2126 47.9582 49.8718 47.9582 50.5311C47.9582 51.1712 48.1952 51.8121 48.667 52.3083L48.7104 52.3487C49.2141 52.8524 49.8734 53.1039 50.5311 53.1039C51.1888 53.1039 51.848 52.8524 52.3502 52.3502C52.8524 51.848 53.1039 51.1887 53.1039 50.5311C53.1039 49.8734 52.8524 49.2141 52.3502 48.7119C51.8495 48.2089 51.1895 47.9582 50.5311 47.9582C49.8901 47.9582 49.25 48.1952 48.7538 48.667L48.7134 48.7104ZM9.46894 6.89608C8.81125 6.89608 8.15203 7.14757 7.6498 7.6498C7.14758 8.15203 6.89608 8.81124 6.89608 9.46894C6.89608 10.1266 7.14758 10.7859 7.6498 11.2881C8.15051 11.7911 8.81049 12.0418 9.46894 12.0418C10.1099 12.0418 10.75 11.8048 11.2462 11.333L11.2866 11.2896C11.7911 10.7874 12.0418 10.1282 12.0418 9.46894C12.0418 8.82877 11.8048 8.18785 11.333 7.69172L11.2896 7.65132C10.7859 7.14757 10.1266 6.89608 9.46894 6.89608Z" fill="#74419D"/>
</svg>
